<svg width="16" height="20" viewBox="0 0 16 20" fill="none" xmlns="http://www.w3.org/2000/svg">
<path d="M11.9032 0C11.9906 1.16113 11.6295 2.31119 10.8966 3.20594C10.5457 3.64985 10.1003 4.00698 9.59392 4.25045C9.08758 4.49391 8.53352 4.61736 7.97347 4.6115C7.93774 4.05313 8.01057 3.49307 8.1878 2.96334C8.36504 2.43361 8.64319 1.94459 9.00637 1.52425C9.74917 0.66383 10.7835 0.119599 11.9032 0Z" fill="currentColor"/>
<path d="M13.9456 8.45098C13.5735 9.11773 13.3733 9.86936 13.3636 10.6359C13.3645 11.4982 13.615 12.3412 14.0838 13.0597C14.5526 13.7782 15.2191 14.3404 16 14.6763C15.693 15.6907 15.2302 16.6493 14.6287 17.5166C13.821 18.7454 12.9741 19.9459 11.6299 19.9681C10.9906 19.9831 10.5591 19.7962 10.1094 19.6013C9.6404 19.3981 9.15164 19.1864 8.38683 19.1864C7.5757 19.1864 7.06507 19.405 6.57258 19.6157C6.14698 19.7979 5.73493 19.9743 5.15424 19.9988C3.87411 20.047 2.8958 18.6873 2.05871 17.47C0.385604 14.9841 -0.917185 10.4644 0.829388 7.38909C1.2326 6.65223 1.81662 6.03416 2.52455 5.59509C3.23247 5.15602 4.04017 4.91093 4.86893 4.8837C5.59496 4.86851 6.29163 5.15309 6.90243 5.40259C7.36954 5.5934 7.78643 5.7637 8.12781 5.7637C8.4279 5.7637 8.83316 5.60013 9.30545 5.4095C10.0494 5.10921 10.9597 4.74179 11.8874 4.84082C12.5983 4.86344 13.2943 5.05433 13.92 5.39834C14.5457 5.74234 15.0839 6.22998 15.4918 6.82252C14.8496 7.22404 14.3177 7.78423 13.9456 8.45098Z" fill="currentColor"/>
</svg>
