<svg width="20" height="20" viewBox="0 0 20 20" fill="none" xmlns="http://www.w3.org/2000/svg">
<path d="M19.4181 8.18164C19.5363 8.83618 19.6 9.518 19.6 10.2271C19.6 13.2725 18.5091 15.8362 16.6182 17.5771L13.3863 15.068C14.4454 14.3589 15.15 13.2998 15.3818 12.0498H10V8.18164H19.4181Z" fill="currentColor"/>
<path fill-rule="evenodd" clip-rule="evenodd" d="M9.99993 20.0004C12.6999 20.0004 14.9635 19.1049 16.6181 17.5776L13.3863 15.0686C12.4908 15.6686 11.3454 16.0231 9.99993 16.0231C7.39539 16.0231 5.19085 14.264 4.40449 11.9004L3 13L1.0636 14.4913C2.70905 17.7595 6.09085 20.0004 9.99993 20.0004Z" fill="currentColor"/>
<path fill-rule="evenodd" clip-rule="evenodd" d="M4.40453 11.8997C4.20453 11.2997 4.09089 10.6588 4.09089 9.99968C4.09089 9.34059 4.20453 8.69968 4.40453 8.09969L3 7L1.06363 5.50879C0.386362 6.85878 0 8.38605 0 9.99968C0 11.6133 0.386362 13.1406 1.06363 14.4906L4.40453 11.8997Z" fill="currentColor"/>
<path fill-rule="evenodd" clip-rule="evenodd" d="M9.99993 3.97726C11.4681 3.97726 12.7863 4.4818 13.8226 5.47271L16.6908 2.60454C14.959 0.990905 12.6954 0 9.99993 0C6.09085 0 2.70905 2.2409 1.0636 5.50907L4.40449 8.09997C5.19085 5.73634 7.39539 3.97726 9.99993 3.97726Z" fill="currentColor"/>
</svg>
