<svg width="482" height="477" viewBox="0 0 482 477" fill="none" xmlns="http://www.w3.org/2000/svg">
<g opacity="0.5">
<path d="M288.591 350.047C299.579 350.006 308.452 341.069 308.411 330.087C308.37 319.104 299.43 310.234 288.442 310.275C277.455 310.317 268.581 319.253 268.622 330.236C268.664 341.218 277.604 350.088 288.591 350.047Z" fill="url(#paint0_linear_20332_2689)" style=""/>
<path d="M342.103 295.301C353.09 295.26 361.964 286.323 361.922 275.34C361.881 264.358 352.941 255.488 341.953 255.529C330.966 255.571 322.092 264.507 322.134 275.49C322.175 286.472 331.115 295.342 342.103 295.301Z" fill="url(#paint1_linear_20332_2689)" style=""/>
<path d="M347.784 219.003C358.772 218.962 367.645 210.026 367.604 199.043C367.563 188.061 358.622 179.191 347.635 179.232C336.648 179.273 327.774 188.21 327.815 199.192C327.857 210.175 336.797 219.045 347.784 219.003Z" fill="url(#paint2_linear_20332_2689)" style=""/>
<path d="M303.073 156.813C314.06 156.772 322.934 147.836 322.892 136.853C322.851 125.871 313.911 117.001 302.923 117.042C291.936 117.083 283.062 126.02 283.104 137.002C283.145 147.985 292.085 156.855 303.073 156.813Z" fill="url(#paint3_linear_20332_2689)" style=""/>
<path d="M228.824 138.059C239.812 138.018 248.685 129.081 248.644 118.099C248.603 107.116 239.663 98.2465 228.675 98.2877C217.688 98.3289 208.814 107.265 208.855 118.248C208.897 129.231 217.837 138.1 228.824 138.059Z" fill="url(#paint4_linear_20332_2689)" style=""/>
<path d="M159.882 171.272C170.87 171.231 179.743 162.294 179.702 151.312C179.661 140.329 170.72 131.459 159.733 131.501C148.746 131.542 139.872 140.478 139.913 151.461C139.954 162.443 148.895 171.313 159.882 171.272Z" fill="url(#paint5_linear_20332_2689)" style=""/>
<path d="M128.456 240.989C139.444 240.948 148.317 232.012 148.276 221.029C148.235 210.046 139.294 201.177 128.307 201.218C117.32 201.259 108.446 210.196 108.487 221.178C108.528 232.161 117.469 241.03 128.456 240.989Z" fill="url(#paint6_linear_20332_2689)" style=""/>
<path d="M149.196 314.633C160.184 314.592 169.057 305.655 169.016 294.673C168.975 283.69 160.034 274.82 149.047 274.861C138.06 274.903 129.186 283.839 129.227 294.822C129.268 305.804 138.209 314.674 149.196 314.633Z" fill="url(#paint7_linear_20332_2689)" style=""/>
<path d="M212.451 357.719C223.438 357.678 232.312 348.741 232.271 337.758C232.23 326.776 223.289 317.906 212.302 317.947C201.314 317.989 192.441 326.925 192.482 337.908C192.523 348.89 201.464 357.76 212.451 357.719Z" fill="url(#paint8_linear_20332_2689)" style=""/>
<path d="M288.591 350.047C299.579 350.006 308.452 341.069 308.411 330.087C308.37 319.104 299.43 310.234 288.442 310.275C277.455 310.317 268.581 319.253 268.622 330.236C268.664 341.218 277.604 350.088 288.591 350.047Z" fill="url(#paint9_linear_20332_2689)" style=""/>
<path d="M251.675 396.634C263.604 396.589 273.238 386.886 273.193 374.962C273.149 363.038 263.442 353.408 251.513 353.453C239.584 353.498 229.949 363.2 229.994 375.124C230.039 387.048 239.746 396.678 251.675 396.634Z" fill="url(#paint10_linear_20332_2689)" style=""/>
<path d="M341.615 355.245C353.544 355.201 363.178 345.498 363.134 333.574C363.089 321.65 353.382 312.02 341.453 312.065C329.524 312.11 319.89 321.812 319.934 333.736C319.979 345.66 329.686 355.29 341.615 355.245Z" fill="url(#paint11_linear_20332_2689)" style=""/>
<path d="M383.769 265.742C395.698 265.698 405.332 255.995 405.288 244.071C405.243 232.147 395.536 222.517 383.607 222.562C371.678 222.607 362.044 232.309 362.088 244.233C362.133 256.157 371.84 265.787 383.769 265.742Z" fill="url(#paint12_linear_20332_2689)" style=""/>
<path d="M358.542 170.1C370.471 170.055 380.105 160.353 380.06 148.429C380.016 136.505 370.309 126.875 358.38 126.919C346.451 126.964 336.816 136.667 336.861 148.591C336.906 160.515 346.612 170.145 358.542 170.1Z" fill="url(#paint13_linear_20332_2689)" style=""/>
<path d="M277.755 113.018C289.685 112.973 299.319 103.271 299.274 91.3466C299.229 79.4227 289.523 69.7927 277.594 69.8374C265.664 69.8822 256.03 79.5847 256.075 91.5086C256.12 103.433 265.826 113.063 277.755 113.018Z" fill="url(#paint14_linear_20332_2689)" style=""/>
<path d="M179.165 121.343C191.094 121.298 200.728 111.595 200.684 99.6713C200.639 87.7474 190.932 78.1174 179.003 78.1621C167.074 78.2069 157.44 87.9094 157.484 99.8334C157.529 111.757 167.236 121.387 179.165 121.343Z" fill="url(#paint15_linear_20332_2689)" style=""/>
<path d="M108.941 190.921C120.87 190.876 130.504 181.174 130.459 169.25C130.415 157.326 120.708 147.696 108.779 147.741C96.8497 147.786 87.2155 157.488 87.2602 169.412C87.3049 181.336 97.0116 190.966 108.941 190.921Z" fill="url(#paint16_linear_20332_2689)" style=""/>
<path d="M99.7914 289.393C111.721 289.348 121.355 279.646 121.31 267.722C121.265 255.798 111.559 246.168 99.6294 246.212C87.7003 246.257 78.066 255.96 78.1108 267.884C78.1555 279.808 87.8622 289.438 99.7914 289.393Z" fill="url(#paint17_linear_20332_2689)" style=""/>
<path d="M156.228 370.713C168.157 370.668 177.791 360.965 177.747 349.041C177.702 337.118 167.995 327.488 156.066 327.532C144.137 327.577 134.503 337.28 134.547 349.203C134.592 361.127 144.299 370.757 156.228 370.713Z" fill="url(#paint18_linear_20332_2689)" style=""/>
<path d="M251.675 396.634C263.604 396.589 273.238 386.886 273.193 374.962C273.149 363.038 263.442 353.408 251.513 353.453C239.584 353.498 229.949 363.2 229.994 375.124C230.039 387.048 239.746 396.678 251.675 396.634Z" fill="url(#paint19_linear_20332_2689)" style=""/>
<path d="M394.379 328.342C408.662 328.289 420.198 316.671 420.145 302.394C420.091 288.116 408.469 276.586 394.185 276.639C379.901 276.693 368.366 288.31 368.419 302.588C368.473 316.865 380.095 328.396 394.379 328.342Z" fill="url(#paint20_linear_20332_2689)" style=""/>
<path d="M404.744 212.823C419.027 212.77 430.563 201.152 430.509 186.875C430.456 172.597 418.833 161.067 404.55 161.12C390.266 161.174 378.73 172.791 378.784 187.069C378.838 201.346 390.46 212.877 404.744 212.823Z" fill="url(#paint21_linear_20332_2689)" style=""/>
<path d="M338.451 117.619C352.734 117.565 364.27 105.948 364.216 91.6706C364.163 77.3932 352.54 65.8626 338.257 65.9162C323.973 65.9698 312.437 77.5873 312.491 91.8646C312.545 106.142 324.167 117.673 338.451 117.619Z" fill="url(#paint22_linear_20332_2689)" style=""/>
<path d="M226.359 87.2167C240.642 87.1631 252.178 75.5456 252.125 61.2682C252.071 46.9909 240.449 35.4603 226.165 35.5138C211.881 35.5674 200.346 47.1849 200.399 61.4623C200.453 75.7396 212.075 87.2702 226.359 87.2167Z" fill="url(#paint23_linear_20332_2689)" style=""/>
<path d="M121.099 136.048C135.383 135.994 146.919 124.377 146.865 110.099C146.812 95.8219 135.189 84.2913 120.905 84.3449C106.622 84.3985 95.0861 96.016 95.1397 110.293C95.1932 124.571 106.816 136.101 121.099 136.048Z" fill="url(#paint24_linear_20332_2689)" style=""/>
<path d="M71.7573 241.203C86.0409 241.15 97.5766 229.532 97.523 215.255C97.4695 200.978 85.847 189.447 71.5634 189.501C57.2798 189.554 45.7441 201.172 45.7977 215.449C45.8512 229.726 57.4737 241.257 71.7573 241.203Z" fill="url(#paint25_linear_20332_2689)" style=""/>
<path d="M101.593 353.304C115.876 353.25 127.412 341.633 127.358 327.356C127.305 313.078 115.682 301.548 101.399 301.601C87.115 301.655 75.5793 313.272 75.6329 327.55C75.6864 341.827 87.3089 353.358 101.593 353.304Z" fill="url(#paint26_linear_20332_2689)" style=""/>
<path d="M196.486 420.134C210.769 420.081 222.305 408.463 222.252 394.186C222.198 379.908 210.575 368.378 196.292 368.431C182.008 368.485 170.473 380.102 170.526 394.38C170.58 408.657 182.202 420.188 196.486 420.134Z" fill="url(#paint27_linear_20332_2689)" style=""/>
<path d="M312.123 410.184C326.406 410.13 337.942 398.513 337.888 384.236C337.835 369.958 326.212 358.428 311.929 358.481C297.645 358.535 286.109 370.152 286.163 384.43C286.216 398.707 297.839 410.238 312.123 410.184Z" fill="url(#paint28_linear_20332_2689)" style=""/>
<path d="M380.67 424.131C396.601 424.071 409.468 411.113 409.408 395.189C409.349 379.264 396.385 366.403 380.453 366.463C364.522 366.522 351.655 379.48 351.715 395.405C351.774 411.33 364.738 424.191 380.67 424.131Z" fill="url(#paint29_linear_20332_2689)" style=""/>
<path d="M453.087 295.879C469.019 295.819 481.886 282.861 481.826 266.936C481.766 251.012 468.803 238.15 452.871 238.21C436.939 238.27 424.073 251.228 424.132 267.153C424.192 283.077 437.156 295.938 453.087 295.879Z" fill="url(#paint30_linear_20332_2689)" style=""/>
<path d="M425.971 151.239C441.902 151.179 454.769 138.221 454.709 122.297C454.65 106.372 441.686 93.5107 425.754 93.5705C409.823 93.6303 396.956 106.588 397.016 122.513C397.075 138.438 410.039 151.299 425.971 151.239Z" fill="url(#paint31_linear_20332_2689)" style=""/>
<path d="M312.22 57.7766C328.152 57.7169 341.019 44.7589 340.959 28.8342C340.899 12.9094 327.936 0.0483457 312.004 0.108105C296.072 0.167864 283.206 13.1258 283.265 29.0506C283.325 44.9753 296.289 57.8364 312.22 57.7766Z" fill="url(#paint32_linear_20332_2689)" style=""/>
<path d="M165.006 59.3221C180.937 59.2623 193.804 46.3043 193.744 30.3796C193.685 14.4549 180.721 1.59376 164.789 1.65352C148.858 1.71327 135.991 14.6713 136.051 30.596C136.11 46.5207 149.074 59.3818 165.006 59.3221Z" fill="url(#paint33_linear_20332_2689)" style=""/>
<path d="M53.1022 155.053C69.0339 154.993 81.9007 142.035 81.8409 126.11C81.7812 110.185 68.8176 97.3242 52.8859 97.384C36.9542 97.4437 24.0875 110.402 24.1472 126.326C24.207 142.251 37.1706 155.112 53.1022 155.053Z" fill="url(#paint34_linear_20332_2689)" style=""/>
<path d="M29.0632 300.31C44.9948 300.251 57.8616 287.293 57.8019 271.368C57.7421 255.443 44.7785 242.582 28.8469 242.642C12.9152 242.702 0.0484233 255.66 0.108156 271.584C0.16789 287.509 13.1315 300.37 29.0632 300.31Z" fill="url(#paint35_linear_20332_2689)" style=""/>
<path d="M104.002 427.016C119.934 426.956 132.8 413.998 132.741 398.073C132.681 382.149 119.717 369.288 103.786 369.347C87.8539 369.407 74.9871 382.365 75.0469 398.29C75.1066 414.215 88.0702 427.076 104.002 427.016Z" fill="url(#paint36_linear_20332_2689)" style=""/>
<path d="M242.879 475.925C258.81 475.865 271.677 462.907 271.617 446.983C271.558 431.058 258.594 418.197 242.662 418.257C226.731 418.316 213.864 431.274 213.924 447.199C213.983 463.124 226.947 475.985 242.879 475.925Z" fill="url(#paint37_linear_20332_2689)" style=""/>
</g>
<defs>
<linearGradient id="paint0_linear_20332_2689" x1="288.336" y1="282.031" x2="288.591" y2="350.047" gradientUnits="userSpaceOnUse">
<stop stop-color="white" style="stop-color:white;stop-opacity:1;"/>
<stop offset="1" stop-color="white" stop-opacity="0" style="stop-color:none;stop-opacity:0;"/>
</linearGradient>
<linearGradient id="paint1_linear_20332_2689" x1="341.848" y1="227.285" x2="342.103" y2="295.301" gradientUnits="userSpaceOnUse">
<stop stop-color="white" style="stop-color:white;stop-opacity:1;"/>
<stop offset="1" stop-color="white" stop-opacity="0" style="stop-color:none;stop-opacity:0;"/>
</linearGradient>
<linearGradient id="paint2_linear_20332_2689" x1="347.529" y1="150.988" x2="347.784" y2="219.003" gradientUnits="userSpaceOnUse">
<stop stop-color="white" style="stop-color:white;stop-opacity:1;"/>
<stop offset="1" stop-color="white" stop-opacity="0" style="stop-color:none;stop-opacity:0;"/>
</linearGradient>
<linearGradient id="paint3_linear_20332_2689" x1="302.817" y1="88.7979" x2="303.073" y2="156.813" gradientUnits="userSpaceOnUse">
<stop stop-color="white" style="stop-color:white;stop-opacity:1;"/>
<stop offset="1" stop-color="white" stop-opacity="0" style="stop-color:none;stop-opacity:0;"/>
</linearGradient>
<linearGradient id="paint4_linear_20332_2689" x1="228.569" y1="70.0435" x2="228.824" y2="138.059" gradientUnits="userSpaceOnUse">
<stop stop-color="white" style="stop-color:white;stop-opacity:1;"/>
<stop offset="1" stop-color="white" stop-opacity="0" style="stop-color:none;stop-opacity:0;"/>
</linearGradient>
<linearGradient id="paint5_linear_20332_2689" x1="159.627" y1="103.256" x2="159.882" y2="171.272" gradientUnits="userSpaceOnUse">
<stop stop-color="white" style="stop-color:white;stop-opacity:1;"/>
<stop offset="1" stop-color="white" stop-opacity="0" style="stop-color:none;stop-opacity:0;"/>
</linearGradient>
<linearGradient id="paint6_linear_20332_2689" x1="128.201" y1="172.974" x2="128.456" y2="240.989" gradientUnits="userSpaceOnUse">
<stop stop-color="white" style="stop-color:white;stop-opacity:1;"/>
<stop offset="1" stop-color="white" stop-opacity="0" style="stop-color:none;stop-opacity:0;"/>
</linearGradient>
<linearGradient id="paint7_linear_20332_2689" x1="148.941" y1="246.617" x2="149.196" y2="314.633" gradientUnits="userSpaceOnUse">
<stop stop-color="white" style="stop-color:white;stop-opacity:1;"/>
<stop offset="1" stop-color="white" stop-opacity="0" style="stop-color:none;stop-opacity:0;"/>
</linearGradient>
<linearGradient id="paint8_linear_20332_2689" x1="212.196" y1="289.703" x2="212.451" y2="357.719" gradientUnits="userSpaceOnUse">
<stop stop-color="white" style="stop-color:white;stop-opacity:1;"/>
<stop offset="1" stop-color="white" stop-opacity="0" style="stop-color:none;stop-opacity:0;"/>
</linearGradient>
<linearGradient id="paint9_linear_20332_2689" x1="288.336" y1="282.031" x2="288.591" y2="350.047" gradientUnits="userSpaceOnUse">
<stop stop-color="white" style="stop-color:white;stop-opacity:1;"/>
<stop offset="1" stop-color="white" stop-opacity="0" style="stop-color:none;stop-opacity:0;"/>
</linearGradient>
<linearGradient id="paint10_linear_20332_2689" x1="251.398" y1="322.788" x2="251.675" y2="396.634" gradientUnits="userSpaceOnUse">
<stop stop-color="white" style="stop-color:white;stop-opacity:1;"/>
<stop offset="1" stop-color="white" stop-opacity="0" style="stop-color:none;stop-opacity:0;"/>
</linearGradient>
<linearGradient id="paint11_linear_20332_2689" x1="341.338" y1="281.4" x2="341.615" y2="355.245" gradientUnits="userSpaceOnUse">
<stop stop-color="white" style="stop-color:white;stop-opacity:1;"/>
<stop offset="1" stop-color="white" stop-opacity="0" style="stop-color:none;stop-opacity:0;"/>
</linearGradient>
<linearGradient id="paint12_linear_20332_2689" x1="383.492" y1="191.897" x2="383.769" y2="265.742" gradientUnits="userSpaceOnUse">
<stop stop-color="white" style="stop-color:white;stop-opacity:1;"/>
<stop offset="1" stop-color="white" stop-opacity="0" style="stop-color:none;stop-opacity:0;"/>
</linearGradient>
<linearGradient id="paint13_linear_20332_2689" x1="358.265" y1="96.2543" x2="358.542" y2="170.1" gradientUnits="userSpaceOnUse">
<stop stop-color="white" style="stop-color:white;stop-opacity:1;"/>
<stop offset="1" stop-color="white" stop-opacity="0" style="stop-color:none;stop-opacity:0;"/>
</linearGradient>
<linearGradient id="paint14_linear_20332_2689" x1="277.478" y1="39.1723" x2="277.755" y2="113.018" gradientUnits="userSpaceOnUse">
<stop stop-color="white" style="stop-color:white;stop-opacity:1;"/>
<stop offset="1" stop-color="white" stop-opacity="0" style="stop-color:none;stop-opacity:0;"/>
</linearGradient>
<linearGradient id="paint15_linear_20332_2689" x1="178.888" y1="47.497" x2="179.165" y2="121.343" gradientUnits="userSpaceOnUse">
<stop stop-color="white" style="stop-color:white;stop-opacity:1;"/>
<stop offset="1" stop-color="white" stop-opacity="0" style="stop-color:none;stop-opacity:0;"/>
</linearGradient>
<linearGradient id="paint16_linear_20332_2689" x1="108.664" y1="117.076" x2="108.941" y2="190.921" gradientUnits="userSpaceOnUse">
<stop stop-color="white" style="stop-color:white;stop-opacity:1;"/>
<stop offset="1" stop-color="white" stop-opacity="0" style="stop-color:none;stop-opacity:0;"/>
</linearGradient>
<linearGradient id="paint17_linear_20332_2689" x1="99.5144" y1="215.547" x2="99.7914" y2="289.393" gradientUnits="userSpaceOnUse">
<stop stop-color="white" style="stop-color:white;stop-opacity:1;"/>
<stop offset="1" stop-color="white" stop-opacity="0" style="stop-color:none;stop-opacity:0;"/>
</linearGradient>
<linearGradient id="paint18_linear_20332_2689" x1="155.951" y1="296.867" x2="156.228" y2="370.713" gradientUnits="userSpaceOnUse">
<stop stop-color="white" style="stop-color:white;stop-opacity:1;"/>
<stop offset="1" stop-color="white" stop-opacity="0" style="stop-color:none;stop-opacity:0;"/>
</linearGradient>
<linearGradient id="paint19_linear_20332_2689" x1="251.398" y1="322.788" x2="251.675" y2="396.634" gradientUnits="userSpaceOnUse">
<stop stop-color="white" style="stop-color:white;stop-opacity:1;"/>
<stop offset="1" stop-color="white" stop-opacity="0" style="stop-color:none;stop-opacity:0;"/>
</linearGradient>
<linearGradient id="paint20_linear_20332_2689" x1="394.047" y1="239.922" x2="394.379" y2="328.342" gradientUnits="userSpaceOnUse">
<stop stop-color="white" style="stop-color:white;stop-opacity:1;"/>
<stop offset="1" stop-color="white" stop-opacity="0" style="stop-color:none;stop-opacity:0;"/>
</linearGradient>
<linearGradient id="paint21_linear_20332_2689" x1="404.412" y1="124.403" x2="404.744" y2="212.823" gradientUnits="userSpaceOnUse">
<stop stop-color="white" style="stop-color:white;stop-opacity:1;"/>
<stop offset="1" stop-color="white" stop-opacity="0" style="stop-color:none;stop-opacity:0;"/>
</linearGradient>
<linearGradient id="paint22_linear_20332_2689" x1="338.119" y1="29.1987" x2="338.451" y2="117.619" gradientUnits="userSpaceOnUse">
<stop stop-color="white" style="stop-color:white;stop-opacity:1;"/>
<stop offset="1" stop-color="white" stop-opacity="0" style="stop-color:none;stop-opacity:0;"/>
</linearGradient>
<linearGradient id="paint23_linear_20332_2689" x1="226.027" y1="-1.20363" x2="226.359" y2="87.2167" gradientUnits="userSpaceOnUse">
<stop stop-color="white" style="stop-color:white;stop-opacity:1;"/>
<stop offset="1" stop-color="white" stop-opacity="0" style="stop-color:none;stop-opacity:0;"/>
</linearGradient>
<linearGradient id="paint24_linear_20332_2689" x1="120.768" y1="47.6274" x2="121.099" y2="136.048" gradientUnits="userSpaceOnUse">
<stop stop-color="white" style="stop-color:white;stop-opacity:1;"/>
<stop offset="1" stop-color="white" stop-opacity="0" style="stop-color:none;stop-opacity:0;"/>
</linearGradient>
<linearGradient id="paint25_linear_20332_2689" x1="71.4257" y1="152.783" x2="71.7573" y2="241.203" gradientUnits="userSpaceOnUse">
<stop stop-color="white" style="stop-color:white;stop-opacity:1;"/>
<stop offset="1" stop-color="white" stop-opacity="0" style="stop-color:none;stop-opacity:0;"/>
</linearGradient>
<linearGradient id="paint26_linear_20332_2689" x1="101.261" y1="264.884" x2="101.593" y2="353.304" gradientUnits="userSpaceOnUse">
<stop stop-color="white" style="stop-color:white;stop-opacity:1;"/>
<stop offset="1" stop-color="white" stop-opacity="0" style="stop-color:none;stop-opacity:0;"/>
</linearGradient>
<linearGradient id="paint27_linear_20332_2689" x1="196.154" y1="331.714" x2="196.486" y2="420.134" gradientUnits="userSpaceOnUse">
<stop stop-color="white" style="stop-color:white;stop-opacity:1;"/>
<stop offset="1" stop-color="white" stop-opacity="0" style="stop-color:none;stop-opacity:0;"/>
</linearGradient>
<linearGradient id="paint28_linear_20332_2689" x1="311.791" y1="321.764" x2="312.123" y2="410.184" gradientUnits="userSpaceOnUse">
<stop stop-color="white" style="stop-color:white;stop-opacity:1;"/>
<stop offset="1" stop-color="white" stop-opacity="0" style="stop-color:none;stop-opacity:0;"/>
</linearGradient>
<linearGradient id="paint29_linear_20332_2689" x1="380.3" y1="325.508" x2="380.67" y2="424.131" gradientUnits="userSpaceOnUse">
<stop stop-color="white" style="stop-color:white;stop-opacity:1;"/>
<stop offset="1" stop-color="white" stop-opacity="0" style="stop-color:none;stop-opacity:0;"/>
</linearGradient>
<linearGradient id="paint30_linear_20332_2689" x1="452.717" y1="197.256" x2="453.087" y2="295.879" gradientUnits="userSpaceOnUse">
<stop stop-color="white" style="stop-color:white;stop-opacity:1;"/>
<stop offset="1" stop-color="white" stop-opacity="0" style="stop-color:none;stop-opacity:0;"/>
</linearGradient>
<linearGradient id="paint31_linear_20332_2689" x1="425.601" y1="52.6164" x2="425.971" y2="151.239" gradientUnits="userSpaceOnUse">
<stop stop-color="white" style="stop-color:white;stop-opacity:1;"/>
<stop offset="1" stop-color="white" stop-opacity="0" style="stop-color:none;stop-opacity:0;"/>
</linearGradient>
<linearGradient id="paint32_linear_20332_2689" x1="311.85" y1="-40.846" x2="312.22" y2="57.7766" gradientUnits="userSpaceOnUse">
<stop stop-color="white" style="stop-color:white;stop-opacity:1;"/>
<stop offset="1" stop-color="white" stop-opacity="0" style="stop-color:none;stop-opacity:0;"/>
</linearGradient>
<linearGradient id="paint33_linear_20332_2689" x1="164.636" y1="-39.3006" x2="165.006" y2="59.322" gradientUnits="userSpaceOnUse">
<stop stop-color="white" style="stop-color:white;stop-opacity:1;"/>
<stop offset="1" stop-color="white" stop-opacity="0" style="stop-color:none;stop-opacity:0;"/>
</linearGradient>
<linearGradient id="paint34_linear_20332_2689" x1="52.7323" y1="56.4299" x2="53.1022" y2="155.053" gradientUnits="userSpaceOnUse">
<stop stop-color="white" style="stop-color:white;stop-opacity:1;"/>
<stop offset="1" stop-color="white" stop-opacity="0" style="stop-color:none;stop-opacity:0;"/>
</linearGradient>
<linearGradient id="paint35_linear_20332_2689" x1="28.6932" y1="201.688" x2="29.0632" y2="300.31" gradientUnits="userSpaceOnUse">
<stop stop-color="white" style="stop-color:white;stop-opacity:1;"/>
<stop offset="1" stop-color="white" stop-opacity="0" style="stop-color:none;stop-opacity:0;"/>
</linearGradient>
<linearGradient id="paint36_linear_20332_2689" x1="103.632" y1="328.393" x2="104.002" y2="427.016" gradientUnits="userSpaceOnUse">
<stop stop-color="white" style="stop-color:white;stop-opacity:1;"/>
<stop offset="1" stop-color="white" stop-opacity="0" style="stop-color:none;stop-opacity:0;"/>
</linearGradient>
<linearGradient id="paint37_linear_20332_2689" x1="242.509" y1="377.302" x2="242.879" y2="475.925" gradientUnits="userSpaceOnUse">
<stop stop-color="white" style="stop-color:white;stop-opacity:1;"/>
<stop offset="1" stop-color="white" stop-opacity="0" style="stop-color:none;stop-opacity:0;"/>
</linearGradient>
</defs>
</svg>
