<svg width="20" height="20" viewBox="0 0 20 20" fill="none" xmlns="http://www.w3.org/2000/svg">
<path fill-rule="evenodd" clip-rule="evenodd" d="M9.93582 4.02853e-05L9.92652 2.87145e-05C8.45464 0.00457457 7.00207 0.335381 5.67335 0.968638C4.34464 1.60189 3.17285 2.52185 2.24231 3.66229C1.31178 4.80272 0.645657 6.13528 0.291885 7.56403C-0.0618854 8.99277 -0.0945037 10.4822 0.196378 11.9251C0.487261 13.3679 1.09441 14.7284 1.97412 15.9084C2.85384 17.0886 3.98422 18.0588 5.28394 18.7497C6.58365 19.4406 8.02035 19.8346 9.49064 19.9036C10.9609 19.9726 12.4282 19.7147 13.7869 19.1487C14.3332 18.9211 14.5914 18.2937 14.3639 17.7476C14.1363 17.2013 13.509 16.943 12.9627 17.1706C11.8965 17.6148 10.7449 17.8173 9.59107 17.7631C8.43719 17.709 7.30968 17.3997 6.28967 16.8576C5.26967 16.3154 4.38254 15.5538 3.69214 14.6277C3.00174 13.7016 2.52525 12.6339 2.29698 11.5016C2.06869 10.3692 2.09429 9.20033 2.37192 8.07906C2.64957 6.95779 3.17234 5.912 3.90261 5.01699C4.63289 4.12199 5.55251 3.40002 6.59527 2.90303C7.63664 2.40672 8.77495 2.14715 9.92849 2.14289C11.3044 2.15139 12.6546 2.5174 13.8464 3.20509C15.0396 3.89355 16.033 4.88068 16.7292 6.06943L16.7372 6.08299C18.4497 8.91139 17.6094 11.1036 16.6017 12.0814C16.044 12.6225 15.5874 12.6771 15.448 12.6449C15.4126 12.6367 15.3757 12.6236 15.3264 12.5433C15.2636 12.4409 15.1707 12.2015 15.1707 11.7345V9.9573V9.94792C15.1696 9.26456 15.033 8.58819 14.7689 7.95786C14.5036 7.3246 14.1149 6.75052 13.6254 6.26905C13.1359 5.78759 12.5555 5.40839 11.9179 5.15358C11.2804 4.89875 10.5985 4.7734 9.91195 4.78485C8.89275 4.80185 7.90129 5.11959 7.06208 5.69819C6.22287 6.27679 5.57332 7.09045 5.19501 8.03699C4.81669 8.98352 4.72648 10.0207 4.93569 11.0184C5.14491 12.016 5.64422 12.9296 6.37094 13.6444C7.09765 14.3591 8.01937 14.8434 9.02032 15.036C10.0213 15.2287 11.0569 15.1214 11.997 14.7276C12.5698 14.4876 13.0917 14.1476 13.5397 13.7268C13.8835 14.2527 14.3836 14.5981 14.9649 14.7326C16.1049 14.9963 17.2726 14.4161 18.0939 13.6193C19.8432 11.9221 20.78 8.62859 18.5743 4.97983C17.6904 3.4732 16.4303 2.22203 14.9173 1.34903C13.402 0.474715 11.6853 0.00981414 9.93582 4.02853e-05ZM9.94767 6.92742C10.3498 6.9207 10.7492 6.99413 11.1226 7.14338C11.496 7.29263 11.836 7.51475 12.1227 7.79675C12.4094 8.07876 12.6371 8.41502 12.7925 8.78593C12.9479 9.15685 13.028 9.55499 13.0279 9.95715C13.0278 10.5542 12.8513 11.1379 12.5206 11.635C12.1899 12.1321 11.7196 12.5204 11.169 12.7511C10.6183 12.9818 10.0117 13.0447 9.42542 12.9318C8.83912 12.819 8.29925 12.5354 7.87359 12.1167C7.44794 11.698 7.15548 11.1629 7.03294 10.5786C6.91039 9.99422 6.96322 9.38669 7.18482 8.83228C7.40641 8.27786 7.78687 7.80128 8.27842 7.46238C8.76997 7.12348 9.35069 6.93736 9.94767 6.92742Z" fill="currentColor"/>
</svg>
