<svg width="11" height="10" viewBox="0 0 11 10" fill="none" xmlns="http://www.w3.org/2000/svg">
<path d="M4 0C4.3682 0 4.66667 0.29848 4.66667 0.666667C4.66667 1.03485 4.3682 1.33333 4 1.33333H3.66667C2.378 1.33333 1.33333 2.378 1.33333 3.66667C1.33333 4.95533 2.378 6 3.66667 6H8.3906L7.02867 4.638C6.76827 4.37767 6.76827 3.95566 7.02867 3.69531C7.289 3.43496 7.711 3.43496 7.97133 3.69531L10.4713 6.19533C10.5032 6.2272 10.5317 6.26233 10.5567 6.30013C10.5731 6.32513 10.5875 6.35107 10.6003 6.3776C10.6148 6.40773 10.6275 6.43893 10.6374 6.47133C10.6399 6.47953 10.6417 6.48787 10.6439 6.49607C10.6583 6.5506 10.6667 6.60767 10.6667 6.66667C10.6667 6.7042 10.6622 6.7408 10.6563 6.77667C10.6515 6.8052 10.6459 6.83353 10.6374 6.86133C10.6275 6.8938 10.6148 6.92493 10.6003 6.95507C10.5957 6.96453 10.5909 6.9738 10.5859 6.98307C10.5673 7.01747 10.5456 7.04967 10.5215 7.08007C10.5057 7.09987 10.4897 7.11973 10.4713 7.138L7.97133 9.638C7.711 9.8984 7.289 9.8984 7.02867 9.638C6.76827 9.37767 6.76827 8.95567 7.02867 8.69533L8.3906 7.33333H3.66667C1.64162 7.33333 0 5.69173 0 3.66667C0 1.64162 1.64162 0 3.66667 0H4Z" fill="#282621" style="fill:#282621;fill:color(display-p3 0.1569 0.1490 0.1294);fill-opacity:1;"/>
</svg>
