<svg width="16" height="16" viewBox="0 0 16 16" fill="none" xmlns="http://www.w3.org/2000/svg">
<path d="M4.73876 7.13536C5.51773 7.13536 6.14921 6.50388 6.14921 5.72491C6.14921 4.94593 5.51773 4.31445 4.73876 4.31445C3.95979 4.31445 3.32831 4.94593 3.32831 5.72491C3.32831 6.50388 3.95979 7.13536 4.73876 7.13536Z" fill="currentColor"/>
<path d="M8.17229 4.73546C8.95126 4.73546 9.58274 4.10397 9.58274 3.325C9.58274 2.54603 8.95126 1.91455 8.17229 1.91455C7.39332 1.91455 6.76184 2.54603 6.76184 3.325C6.76184 4.10397 7.39332 4.73546 8.17229 4.73546Z" fill="currentColor"/>
<path d="M11.5165 7.25987C12.2955 7.25987 12.927 6.62839 12.927 5.84942C12.927 5.07045 12.2955 4.43896 11.5165 4.43896C10.7376 4.43896 10.1061 5.07045 10.1061 5.84942C10.1061 6.62839 10.7376 7.25987 11.5165 7.25987Z" fill="currentColor"/>
<path d="M10.1508 11.2198C10.9298 11.2198 11.5613 10.5883 11.5613 9.80938C11.5613 9.03041 10.9298 8.39893 10.1508 8.39893C9.37184 8.39893 8.74036 9.03041 8.74036 9.80938C8.74036 10.5883 9.37184 11.2198 10.1508 11.2198Z" fill="currentColor"/>
<path d="M5.96093 11.1432C6.7399 11.1432 7.37138 10.5117 7.37138 9.73272C7.37138 8.95375 6.7399 8.32227 5.96093 8.32227C5.18196 8.32227 4.55048 8.95375 4.55048 9.73272C4.55048 10.5117 5.18196 11.1432 5.96093 11.1432Z" fill="currentColor"/>
<path d="M4.73876 7.13536C5.51773 7.13536 6.14921 6.50388 6.14921 5.72491C6.14921 4.94593 5.51773 4.31445 4.73876 4.31445C3.95979 4.31445 3.32831 4.94593 3.32831 5.72491C3.32831 6.50388 3.95979 7.13536 4.73876 7.13536Z" fill="currentColor"/>
<path d="M1.80295 10.8911C2.79869 10.8911 3.6059 10.0839 3.6059 9.08811C3.6059 8.09237 2.79869 7.28516 1.80295 7.28516C0.807209 7.28516 0 8.09237 0 9.08811C0 10.0839 0.807209 10.8911 1.80295 10.8911Z" fill="currentColor"/>
<path d="M4.1771 3.60591C5.17284 3.60591 5.98005 2.7987 5.98005 1.80295C5.98005 0.80721 5.17284 0 4.1771 0C3.18135 0 2.37415 0.80721 2.37415 1.80295C2.37415 2.7987 3.18135 3.60591 4.1771 3.60591Z" fill="currentColor"/>
<path d="M11.8357 3.61225C12.8314 3.61225 13.6386 2.80505 13.6386 1.8093C13.6386 0.813558 12.8314 0.00634766 11.8357 0.00634766C10.8399 0.00634766 10.0327 0.813558 10.0327 1.8093C10.0327 2.80505 10.8399 3.61225 11.8357 3.61225Z" fill="currentColor"/>
<path d="M14.1971 10.8974C15.1928 10.8974 16 10.0902 16 9.09446C16 8.09871 15.1928 7.2915 14.1971 7.2915C13.2013 7.2915 12.3941 8.09871 12.3941 9.09446C12.3941 10.0902 13.2013 10.8974 14.1971 10.8974Z" fill="currentColor"/>
<path d="M7.9968 15.3935C8.99254 15.3935 9.79975 14.5863 9.79975 13.5906C9.79975 12.5948 8.99254 11.7876 7.9968 11.7876C7.00106 11.7876 6.19385 12.5948 6.19385 13.5906C6.19385 14.5863 7.00106 15.3935 7.9968 15.3935Z" fill="currentColor"/>
<path d="M1.80295 10.8911C2.79869 10.8911 3.6059 10.0839 3.6059 9.08811C3.6059 8.09237 2.79869 7.28516 1.80295 7.28516C0.807209 7.28516 0 8.09237 0 9.08811C0 10.0839 0.807209 10.8911 1.80295 10.8911Z" fill="currentColor"/>
</svg>
