<svg width="16" height="16" viewBox="0 0 16 16" fill="none" xmlns="http://www.w3.org/2000/svg">
<rect width="16" height="6" rx="3" fill="url(#paint0_linear_20444_881)" style=""/>
<rect width="16" height="6" rx="3" fill="#72E19F" style="fill:#72E19F;fill:color(display-p3 0.4451 0.8813 0.6239);fill-opacity:1;"/>
<rect x="5" width="6" height="6" fill="url(#paint1_linear_20444_881)" style=""/>
<rect x="5" width="6" height="6" fill="#FFD57A" style="fill:#FFD57A;fill:color(display-p3 1.0000 0.8347 0.4766);fill-opacity:1;"/>
<path d="M0 3C0 1.34315 1.34315 0 3 0H5V6H3C1.34315 6 0 4.65685 0 3Z" fill="url(#paint2_linear_20444_881)" style=""/>
<path d="M0 3C0 1.34315 1.34315 0 3 0H5V6H3C1.34315 6 0 4.65685 0 3Z" fill="#F98D94" style="fill:#F98D94;fill:color(display-p3 0.9753 0.5537 0.5795);fill-opacity:1;"/>
<rect y="10" width="16" height="6" rx="3" fill="#45AFBF" style="fill:#45AFBF;fill:color(display-p3 0.2706 0.6863 0.7490);fill-opacity:1;"/>
<rect y="10" width="16" height="6" rx="3" fill="#9CCC62" style="fill:#9CCC62;fill:color(display-p3 0.6131 0.7991 0.3857);fill-opacity:1;"/>
<rect x="5" y="10" width="6" height="6" fill="url(#paint3_linear_20444_881)" style=""/>
<rect x="5" y="10" width="6" height="6" fill="#49C2D4" style="fill:#49C2D4;fill:color(display-p3 0.2877 0.7590 0.8301);fill-opacity:1;"/>
<path d="M0 13C0 11.3431 1.34315 10 3 10H5V16H3C1.34315 16 0 14.6569 0 13Z" fill="url(#paint4_linear_20444_881)" style=""/>
<path d="M0 13C0 11.3431 1.34315 10 3 10H5V16H3C1.34315 16 0 14.6569 0 13Z" fill="#7B60A7" style="fill:#7B60A7;fill:color(display-p3 0.4824 0.3765 0.6549);fill-opacity:1;"/>
<defs>
<linearGradient id="paint0_linear_20444_881" x1="8" y1="0" x2="8" y2="6" gradientUnits="userSpaceOnUse">
<stop stop-color="#5DAC81" style="stop-color:#5DAC81;stop-color:color(display-p3 0.3647 0.6745 0.5059);stop-opacity:1;"/>
<stop offset="1" stop-color="#A8D8B9" style="stop-color:#A8D8B9;stop-color:color(display-p3 0.6588 0.8471 0.7255);stop-opacity:1;"/>
</linearGradient>
<linearGradient id="paint1_linear_20444_881" x1="8" y1="0" x2="8" y2="6" gradientUnits="userSpaceOnUse">
<stop stop-color="#F6C555" style="stop-color:#F6C555;stop-color:color(display-p3 0.9647 0.7725 0.3333);stop-opacity:1;"/>
<stop offset="1" stop-color="#FAD689" style="stop-color:#FAD689;stop-color:color(display-p3 0.9804 0.8392 0.5373);stop-opacity:1;"/>
</linearGradient>
<linearGradient id="paint2_linear_20444_881" x1="2.5" y1="0" x2="2.5" y2="6" gradientUnits="userSpaceOnUse">
<stop stop-color="#EB7A77" style="stop-color:#EB7A77;stop-color:color(display-p3 0.9216 0.4784 0.4667);stop-opacity:1;"/>
<stop offset="1" stop-color="#F4A7B9" style="stop-color:#F4A7B9;stop-color:color(display-p3 0.9569 0.6549 0.7255);stop-opacity:1;"/>
</linearGradient>
<linearGradient id="paint3_linear_20444_881" x1="8" y1="10" x2="8" y2="16" gradientUnits="userSpaceOnUse">
<stop stop-color="#F6C555" style="stop-color:#F6C555;stop-color:color(display-p3 0.9647 0.7725 0.3333);stop-opacity:1;"/>
<stop offset="1" stop-color="#FAD689" style="stop-color:#FAD689;stop-color:color(display-p3 0.9804 0.8392 0.5373);stop-opacity:1;"/>
</linearGradient>
<linearGradient id="paint4_linear_20444_881" x1="2.5" y1="10" x2="2.5" y2="16" gradientUnits="userSpaceOnUse">
<stop stop-color="#EB7A77" style="stop-color:#EB7A77;stop-color:color(display-p3 0.9216 0.4784 0.4667);stop-opacity:1;"/>
<stop offset="1" stop-color="#F4A7B9" style="stop-color:#F4A7B9;stop-color:color(display-p3 0.9569 0.6549 0.7255);stop-opacity:1;"/>
</linearGradient>
</defs>
</svg>
